[Scene-002] Analyzing scene content with Gemini...
Uploading /Users/shreybirmiwal/projects/GCinema/pipeline/output/CC-Girl-Scene/Scene-002/clip.mp4 ...
  Waiting for Gemini to process video ...
Upload complete: https://generativelanguage.googleapis.com/v1beta/files/ig4gw4jrb81g
Generating description with gemini-3.1-pro-preview ...
Description written to: /Users/shreybirmiwal/projects/GCinema/pipeline/output/CC-Girl-Scene/Scene-002/description.txt
[Scene-002] Description saved.
[Scene-002] Extracting first frame as keyframe...
Frame saved to: /Users/shreybirmiwal/projects/GCinema/pipeline/output/CC-Girl-Scene/Scene-002/frame0.png
[Scene-002] Keyframe saved: frame0.png
[Scene-002] Waiting for Scene-001 colorization...
[Scene-002] Colorizing keyframe with Gemini...
[Scene-002] Using color reference from Scene-001
Input:     /Users/shreybirmiwal/projects/GCinema/pipeline/output/CC-Girl-Scene/Scene-002/frame0.png
Input2:    (none)
Reference: /Users/shreybirmiwal/projects/GCinema/pipeline/output/CC-Girl-Scene/Scene-001/frame0_colorized.jpg
Model:     gemini-3.1-flash-image-preview
Colorizing ...
Colorized image saved to: /Users/shreybirmiwal/projects/GCinema/pipeline/output/CC-Girl-Scene/Scene-002/frame0_colorized.jpg
[Scene-002] Colorized keyframe saved.
[Scene-002] Generating colorized video (5s target)...
Image:       /Users/shreybirmiwal/projects/GCinema/pipeline/output/CC-Girl-Scene/Scene-002/frame0_colorized.jpg
Description: /Users/shreybirmiwal/projects/GCinema/pipeline/output/CC-Girl-Scene/Scene-002/description.txt
Backend:     auto
Duration:    5s
Output:      /Users/shreybirmiwal/projects/GCinema/pipeline/output/CC-Girl-Scene/Scene-002/frame0_colorized_generated.mp4
Generating via Veo (veo-3.1-generate-preview) ...
Waiting for Veo to generate video......
Video saved to: /Users/shreybirmiwal/projects/GCinema/pipeline/output/CC-Girl-Scene/Scene-002/frame0_colorized_generated.mp4
[Scene-002] Generated video saved.
[Scene-002] Time-stretching to match original clip duration...
ffmpeg version 8.0 Copyright (c) 2000-2025 the FFmpeg developers
  built with Apple clang version 17.0.0 (clang-1700.0.13.3)
  configuration: --prefix=/opt/homebrew/Cellar/ffmpeg/8.0_1 --enable-shared --enable-pthreads --enable-version3 --cc=clang --host-cflags= --host-ldflags='-Wl,-ld_classic' --enable-ffplay --enable-gnutls --enable-gpl --enable-libaom --enable-libaribb24 --enable-libbluray --enable-libdav1d --enable-libharfbuzz --enable-libjxl --enable-libmp3lame --enable-libopus --enable-librav1e --enable-librist --enable-librubberband --enable-libsnappy --enable-libsrt --enable-libssh --enable-libsvtav1 --enable-libtesseract --enable-libtheora --enable-libvidstab --enable-libvmaf --enable-libvorbis --enable-libvpx --enable-libwebp --enable-libx264 --enable-libx265 --enable-libxml2 --enable-libxvid --enable-lzma --enable-libfontconfig --enable-libfreetype --enable-frei0r --enable-libass --enable-libopencore-amrnb --enable-libopencore-amrwb --enable-libopenjpeg --enable-libspeex --enable-libsoxr --enable-libzmq --enable-libzimg --disable-libjack --disable-indev=jack --enable-videotoolbox --enable-audiotoolbox --enable-neon
  libavutil      60.  8.100 / 60.  8.100
  libavcodec     62. 11.100 / 62. 11.100
  libavformat    62.  3.100 / 62.  3.100
  libavdevice    62.  1.100 / 62.  1.100
  libavfilter    11.  4.100 / 11.  4.100
  libswscale      9.  1.100 /  9.  1.100
  libswresample   6.  1.100 /  6.  1.100
Input #0, mov,mp4,m4a,3gp,3g2,mj2, from '/Users/shreybirmiwal/projects/GCinema/pipeline/output/CC-Girl-Scene/Scene-002/frame0_colorized_generated.mp4':
  Metadata:
    major_brand     : isom
    minor_version   : 512
    compatible_brands: isomiso2avc1mp41
    encoder         : Google
  Duration: 00:00:06.00, start: 0.000000, bitrate: 3903 kb/s
  Stream #0:0[0x1](und): Video: h264 (High) (avc1 / 0x31637661), yuv420p(progressive), 1280x720, 3746 kb/s, 24 fps, 24 tbr, 12288 tbn (default)
    Metadata:
      handler_name    : VideoHandler
      vendor_id       : [0][0][0][0]
  Stream #0:1[0x2](und): Audio: aac (LC) (mp4a / 0x6134706D), 48000 Hz, stereo, fltp, 140 kb/s (default)
    Metadata:
      handler_name    : SoundHandler
      vendor_id       : [0][0][0][0]
Stream mapping:
  Stream #0:0 -> #0:0 (h264 (native) -> h264 (libx264))
  Stream #0:1 -> #0:1 (aac (native) -> aac (native))
Press [q] to stop, [?] for help
[libx264 @ 0xbb9019180] using cpu capabilities: ARMv8 NEON DotProd I8MM
[libx264 @ 0xbb9019180] profile High, level 3.1, 4:2:0, 8-bit
[libx264 @ 0xbb9019180] 264 - core 165 r3222 b35605a - H.264/MPEG-4 AVC codec - Copyleft 2003-2025 - http://www.videolan.org/x264.html - options: cabac=1 ref=3 deblock=1:0:0 analyse=0x3:0x113 me=hex subme=7 psy=1 psy_rd=1.00:0.00 mixed_ref=1 me_range=16 chroma_me=1 trellis=1 8x8dct=1 cqm=0 deadzone=21,11 fast_pskip=1 chroma_qp_offset=-2 threads=21 lookahead_threads=3 sliced_threads=0 nr=0 decimate=1 interlaced=0 bluray_compat=0 constrained_intra=0 bframes=3 b_pyramid=2 b_adapt=1 b_bias=0 direct=1 weightb=1 open_gop=0 weightp=2 keyint=250 keyint_min=24 scenecut=40 intra_refresh=0 rc_lookahead=40 rc=crf mbtree=1 crf=23.0 qcomp=0.60 qpmin=0 qpmax=69 qpstep=4 ip_ratio=1.40 aq=1:1.00
Output #0, mp4, to '/Users/shreybirmiwal/projects/GCinema/pipeline/output/CC-Girl-Scene/Scene-002/frame0_colorized_generated_matched.mp4':
  Metadata:
    major_brand     : isom
    minor_version   : 512
    compatible_brands: isomiso2avc1mp41
    encoder         : Lavf62.3.100
  Stream #0:0(und): Video: h264 (avc1 / 0x31637661), yuv420p(tv, progressive), 1280x720, q=2-31, 24 fps, 12288 tbn (default)
    Metadata:
      encoder         : Lavc62.11.100 libx264
      handler_name    : VideoHandler
      vendor_id       : [0][0][0][0]
    Side data:
      cpb: bitrate max/min/avg: 0/0/0 buffer size: 0 vbv_delay: N/A
  Stream #0:1(und): Audio: aac (LC) (mp4a / 0x6134706D), 48000 Hz, stereo, fltp, 128 kb/s (default)
    Metadata:
      encoder         : Lavc62.11.100 aac
      handler_name    : SoundHandler
      vendor_id       : [0][0][0][0]
[out#0/mp4 @ 0xbb9000840] video:1140KiB audio:51KiB subtitle:0KiB other streams:0KiB global headers:0KiB muxing overhead: 0.302029%
frame=   80 fps=0.0 q=-1.0 Lsize=    1195KiB time=00:00:03.24 bitrate=3011.8kbits/s dup=0 drop=64 speed=7.13x elapsed=0:00:00.45    
[libx264 @ 0xbb9019180] frame I:1     Avg QP:23.86  size: 65924
[libx264 @ 0xbb9019180] frame P:24    Avg QP:24.62  size: 28580
[libx264 @ 0xbb9019180] frame B:55    Avg QP:28.16  size:  7536
[libx264 @ 0xbb9019180] consecutive B-frames:  1.2% 15.0% 18.8% 65.0%
[libx264 @ 0xbb9019180] mb I  I16..4:  7.9% 72.9% 19.2%
[libx264 @ 0xbb9019180] mb P  I16..4:  0.7%  5.3%  1.9%  P16..4: 42.1% 28.2% 13.1%  0.0%  0.0%    skip: 8.6%
[libx264 @ 0xbb9019180] mb B  I16..4:  0.2%  0.9%  0.4%  B16..8: 50.1%  6.8%  1.2%  direct: 1.4%  skip:39.0%  L0:45.7% L1:44.0% BI:10.2%
[libx264 @ 0xbb9019180] 8x8 transform intra:67.2% inter:76.3%
[libx264 @ 0xbb9019180] coded y,uvDC,uvAC intra: 78.0% 71.1% 18.8% inter: 23.1% 17.7% 0.0%
[libx264 @ 0xbb9019180] i16 v,h,dc,p: 57% 13%  4% 25%
[libx264 @ 0xbb9019180] i8 v,h,dc,ddl,ddr,vr,hd,vl,hu: 30% 16% 11%  5%  7%  9%  7%  7%  9%
[libx264 @ 0xbb9019180] i4 v,h,dc,ddl,ddr,vr,hd,vl,hu: 35% 13% 11%  4% 10%  9%  6%  7%  5%
[libx264 @ 0xbb9019180] i8c dc,h,v,p: 45% 19% 29%  7%
[libx264 @ 0xbb9019180] Weighted P-Frames: Y:0.0% UV:0.0%
[libx264 @ 0xbb9019180] ref P L0: 69.0% 24.6%  5.4%  1.0%
[libx264 @ 0xbb9019180] ref B L0: 97.8%  1.9%  0.3%
[libx264 @ 0xbb9019180] ref B L1: 99.5%  0.5%
[libx264 @ 0xbb9019180] kb/s:2799.18
[aac @ 0xbb909d180] Qavg: 1003.402
Original duration:   3.250s
Colorized duration:  6.000s
PTS factor:          0.5417x  (target: 3.250s)
Running: ffmpeg -y -i /Users/shreybirmiwal/projects/GCinema/pipeline/output/CC-Girl-Scene/Scene-002/frame0_colorized_generated.mp4 -vf setpts=0.541667*PTS -af atempo=1.846154 /Users/shreybirmiwal/projects/GCinema/pipeline/output/CC-Girl-Scene/Scene-002/frame0_colorized_generated_matched.mp4
Output saved to: /Users/shreybirmiwal/projects/GCinema/pipeline/output/CC-Girl-Scene/Scene-002/frame0_colorized_generated_matched.mp4
[Scene-002] Matched video saved.
[Scene-002] All steps complete!
